<?xml version="1.0" standalone="no"?><!DOCTYPE svg PUBLIC "-//W3C//DTD SVG 1.1//EN" "http://www.w3.org/Graphics/SVG/1.1/DTD/svg11.dtd"><svg t="1633395462070" class="icon" viewBox="0 0 1138 1024" version="1.1" xmlns="http://www.w3.org/2000/svg" p-id="6226" xmlns:xlink="http://www.w3.org/1999/xlink" width="18" height="16"><defs><style type="text/css"></style></defs><path d="M186.997713 866.592817L96.433117 325.992722l245.184301 204.225439 224.932418-358.162496 200.641538 358.219383 275.334574-204.282326-83.965668 540.600095H186.997713zM60.821662 269.503625a59.902336 59.902336 0 1 1 0-119.747785 59.902336 59.902336 0 0 1 0 119.747785zM569.8493 119.776228A59.902336 59.902336 0 1 1 569.8493 0.028444a59.902336 59.902336 0 0 1 0 119.747784z m508.970751 149.727397a59.902336 59.902336 0 1 1 0-119.747785 59.902336 59.902336 0 0 1 0 119.747785zM213.279649 1001.984612a28.443654 28.443654 0 1 1 0-56.887309h720.193328a28.443654 28.443654 0 0 1 0 56.887309H213.222762z" fill="#ffdd40" p-id="6227"></path></svg>